# Blender 4.1.1
# www.blender.org
mtllib Battery.mtl
o Cube
v -0.611570 -0.711403 0.238176
v -0.611570 0.711403 0.238176
v -0.510877 -0.599833 -0.254956
v -0.510877 0.599833 -0.254956
v 0.000000 -0.711403 -0.254956
v 0.000000 0.711403 -0.254956
v 0.000000 -0.711403 0.238176
v 0.000000 0.711403 0.238176
v -0.611570 0.711403 -0.254956
v -0.611570 -0.711403 -0.254956
v 0.000000 0.599833 -0.284590
v 0.000000 -0.599833 -0.254956
v 0.000000 0.599833 -0.254956
v 0.000000 -0.599833 -0.284590
v -0.510877 0.599833 -0.284590
v -0.510877 -0.599833 -0.284590
v -0.142026 0.777602 -0.067699
v -0.142026 0.640588 -0.067699
v -0.158374 0.777602 -0.098284
v -0.158374 0.640588 -0.098284
v -0.180375 0.777602 -0.125091
v -0.180375 0.640588 -0.125091
v -0.207182 0.777602 -0.147092
v -0.207182 0.640588 -0.147092
v -0.237767 0.777602 -0.163440
v -0.237767 0.640588 -0.163440
v -0.270953 0.777602 -0.173507
v -0.270953 0.640588 -0.173507
v -0.305466 0.777602 -0.176906
v -0.305466 0.640588 -0.176906
v -0.131959 0.640588 -0.034513
v -0.131959 0.777602 -0.034513
v -0.128560 0.640588 0.000000
v -0.128560 0.777602 0.000000
v -0.131959 0.640588 0.034513
v -0.131959 0.777602 0.034513
v -0.142026 0.640588 0.067699
v -0.142026 0.777602 0.067699
v -0.158374 0.640588 0.098284
v -0.158374 0.777602 0.098284
v -0.180375 0.640588 0.125091
v -0.180375 0.777602 0.125091
v -0.207182 0.640588 0.147092
v -0.207182 0.777602 0.147092
v -0.237767 0.640588 0.163440
v -0.237767 0.777602 0.163440
v -0.270953 0.640588 0.173506
v -0.270953 0.777602 0.173506
v -0.305466 0.640588 0.176906
v -0.305466 0.777602 0.176906
v -0.339979 0.640588 0.173506
v -0.339979 0.777602 0.173506
v -0.373165 0.640588 0.163440
v -0.373165 0.777602 0.163440
v -0.403749 0.640588 0.147092
v -0.403749 0.777602 0.147092
v -0.430557 0.640588 0.125091
v -0.430557 0.777602 0.125091
v -0.452558 0.640588 0.098284
v -0.452558 0.777602 0.098284
v -0.468905 0.640588 0.067699
v -0.468905 0.777602 0.067699
v -0.478973 0.640588 0.034513
v -0.478973 0.777602 0.034513
v -0.482372 0.640588 0.000000
v -0.482372 0.777602 0.000000
v -0.478973 0.640588 -0.034513
v -0.478973 0.777602 -0.034513
v -0.468905 0.640588 -0.067699
v -0.468905 0.777602 -0.067699
v -0.452558 0.640588 -0.098284
v -0.452558 0.777602 -0.098284
v -0.430557 0.640588 -0.125091
v -0.430557 0.777602 -0.125091
v -0.403749 0.640588 -0.147092
v -0.403749 0.777602 -0.147092
v -0.373165 0.640588 -0.163440
v -0.373165 0.777602 -0.163440
v -0.339979 0.640588 -0.173507
v -0.339979 0.777602 -0.173507
v 0.510877 -0.599833 -0.254956
v 0.510877 0.599833 -0.254956
v 0.510877 0.599833 -0.284590
v 0.510877 -0.599833 -0.284590
v 0.083326 0.760126 -0.059606
v 0.083326 0.685586 -0.059606
v 0.097719 0.760126 -0.086534
v 0.097719 0.685586 -0.086534
v 0.117090 0.760126 -0.110137
v 0.117090 0.685586 -0.110137
v 0.140693 0.760126 -0.129508
v 0.140693 0.685586 -0.129508
v 0.167621 0.760126 -0.143901
v 0.167621 0.685586 -0.143901
v 0.196840 0.760126 -0.152765
v 0.196840 0.685586 -0.152765
v 0.227227 0.760126 -0.155758
v 0.227227 0.685586 -0.155758
v 0.074463 0.685586 -0.030387
v 0.074463 0.760126 -0.030387
v 0.071470 0.685586 0.000000
v 0.071470 0.760126 0.000000
v 0.074463 0.685586 0.030387
v 0.074463 0.760126 0.030387
v 0.083326 0.685586 0.059606
v 0.083326 0.760126 0.059606
v 0.097719 0.685586 0.086534
v 0.097719 0.760126 0.086534
v 0.117090 0.685586 0.110137
v 0.117090 0.760126 0.110137
v 0.140693 0.685586 0.129508
v 0.140693 0.760126 0.129508
v 0.167621 0.685586 0.143901
v 0.167621 0.760126 0.143901
v 0.196840 0.685586 0.152765
v 0.196840 0.760126 0.152765
v 0.227227 0.685586 0.155758
v 0.227227 0.760126 0.155758
v 0.257614 0.685586 0.152765
v 0.257614 0.760126 0.152765
v 0.286833 0.685586 0.143901
v 0.286833 0.760126 0.143901
v 0.313761 0.685586 0.129508
v 0.313761 0.760126 0.129508
v 0.337364 0.685586 0.110137
v 0.337364 0.760126 0.110137
v 0.356735 0.685586 0.086534
v 0.356735 0.760126 0.086534
v 0.371128 0.685586 0.059606
v 0.371128 0.760126 0.059606
v 0.379992 0.685586 0.030387
v 0.379992 0.760126 0.030387
v 0.382985 0.685586 0.000000
v 0.382985 0.760126 0.000000
v 0.379992 0.685586 -0.030387
v 0.379992 0.760126 -0.030387
v 0.371128 0.685586 -0.059606
v 0.371128 0.760126 -0.059606
v 0.356735 0.685586 -0.086534
v 0.356735 0.760126 -0.086534
v 0.337364 0.685586 -0.110137
v 0.337364 0.760126 -0.110137
v 0.313761 0.685586 -0.129508
v 0.313761 0.760126 -0.129508
v 0.286833 0.685586 -0.143901
v 0.286833 0.760126 -0.143901
v 0.257614 0.685586 -0.152765
v 0.257614 0.760126 -0.152765
v 0.611570 0.556619 0.238176
v 0.456786 0.711403 0.238176
v 0.456786 0.711403 -0.254956
v 0.611570 0.556619 -0.254956
v 0.510911 0.599870 -0.254956
v 0.529291 -0.711403 0.238176
v 0.611570 -0.629123 0.238176
v 0.611570 -0.629123 -0.254956
v 0.529291 -0.711403 -0.254956
v 0.556443 -0.650321 -0.254956
vn -1.0000 -0.0000 -0.0000
vn -0.0000 -0.0000 1.0000
vn -0.0000 1.0000 -0.0000
vn -0.0000 -1.0000 -0.0000
vn -0.0000 -0.0000 -1.0000
vn 0.5556 -0.0000 -0.8315
vn 0.7071 -0.0000 -0.7071
vn 0.3827 -0.0000 -0.9239
vn 0.1951 -0.0000 -0.9808
vn 0.8315 -0.0000 -0.5556
vn 0.9239 -0.0000 -0.3827
vn 0.9808 -0.0000 -0.1951
vn 1.0000 -0.0000 -0.0000
vn 0.9808 -0.0000 0.1951
vn 0.9239 -0.0000 0.3827
vn 0.8315 -0.0000 0.5556
vn 0.7071 -0.0000 0.7071
vn 0.5556 -0.0000 0.8315
vn 0.3827 -0.0000 0.9239
vn 0.1951 -0.0000 0.9808
vn -0.1951 -0.0000 0.9808
vn -0.3827 -0.0000 0.9239
vn -0.5556 -0.0000 0.8315
vn -0.7071 -0.0000 0.7071
vn -0.8315 -0.0000 0.5556
vn -0.9239 -0.0000 0.3827
vn -0.9808 -0.0000 0.1951
vn -0.9808 -0.0000 -0.1951
vn -0.9239 -0.0000 -0.3827
vn -0.8315 -0.0000 -0.5556
vn -0.7071 -0.0000 -0.7071
vn -0.5556 -0.0000 -0.8315
vn -0.3827 -0.0000 -0.9239
vn -0.1951 -0.0000 -0.9808
vn 0.3922 -0.3922 -0.8321
vn 0.3922 0.3922 -0.8320
vn 0.3922 0.3922 -0.8321
vn 0.7071 0.7071 -0.0000
vn 0.7071 -0.7071 -0.0000
vt 0.375000 0.000000
vt 0.625000 0.000000
vt 0.625000 0.250000
vt 0.375000 0.250000
vt 0.375000 0.875000
vt 0.625000 0.875000
vt 0.625000 1.000000
vt 0.375000 1.000000
vt 0.750000 0.500000
vt 0.875000 0.500000
vt 0.875000 0.750000
vt 0.750000 0.750000
vt 0.125000 0.500000
vt 0.250000 0.500000
vt 0.250000 0.750000
vt 0.125000 0.750000
vt 0.394604 0.355396
vt 0.394604 0.269604
vt 0.605396 0.269604
vt 0.375000 0.375000
vt 0.605396 0.355396
vt 0.625000 0.375000
vt 1.000000 0.500000
vt 1.000000 1.000000
vt 0.968750 1.000000
vt 0.968750 0.500000
vt 0.937500 1.000000
vt 0.937500 0.500000
vt 0.906250 1.000000
vt 0.906250 0.500000
vt 0.875000 1.000000
vt 0.843750 1.000000
vt 0.843750 0.500000
vt 0.812500 1.000000
vt 0.812500 0.500000
vt 0.781250 1.000000
vt 0.781250 0.500000
vt 0.750000 1.000000
vt 0.718750 1.000000
vt 0.718750 0.500000
vt 0.687500 1.000000
vt 0.687500 0.500000
vt 0.656250 1.000000
vt 0.656250 0.500000
vt 0.625000 0.500000
vt 0.593750 1.000000
vt 0.593750 0.500000
vt 0.562500 1.000000
vt 0.562500 0.500000
vt 0.531250 1.000000
vt 0.531250 0.500000
vt 0.500000 1.000000
vt 0.500000 0.500000
vt 0.468750 1.000000
vt 0.468750 0.500000
vt 0.437500 1.000000
vt 0.437500 0.500000
vt 0.406250 1.000000
vt 0.406250 0.500000
vt 0.375000 0.500000
vt 0.343750 1.000000
vt 0.343750 0.500000
vt 0.312500 1.000000
vt 0.312500 0.500000
vt 0.281250 1.000000
vt 0.281250 0.500000
vt 0.250000 1.000000
vt 0.218750 1.000000
vt 0.218750 0.500000
vt 0.187500 1.000000
vt 0.187500 0.500000
vt 0.156250 1.000000
vt 0.156250 0.500000
vt 0.125000 1.000000
vt 0.093750 1.000000
vt 0.093750 0.500000
vt 0.062500 1.000000
vt 0.062500 0.500000
vt 0.841844 0.471731
vt 0.883337 0.449553
vt 0.919706 0.419706
vt 0.949553 0.383337
vt 0.971731 0.341844
vt 0.985388 0.296822
vt 0.990000 0.250000
vt 0.985388 0.203178
vt 0.971731 0.158156
vt 0.949553 0.116663
vt 0.919706 0.080294
vt 0.883337 0.050447
vt 0.841844 0.028269
vt 0.796822 0.014612
vt 0.750000 0.010000
vt 0.703178 0.014612
vt 0.658156 0.028269
vt 0.616663 0.050447
vt 0.580294 0.080294
vt 0.550447 0.116663
vt 0.528269 0.158156
vt 0.514612 0.203178
vt 0.510000 0.250000
vt 0.514612 0.296822
vt 0.528269 0.341844
vt 0.550447 0.383337
vt 0.580294 0.419706
vt 0.616663 0.449553
vt 0.658156 0.471731
vt 0.703178 0.485388
vt 0.750000 0.490000
vt 0.796822 0.485388
vt 0.031250 1.000000
vt 0.031250 0.500000
vt 0.000000 1.000000
vt 0.000000 0.500000
vt 0.419706 0.419706
vt 0.383337 0.449553
vt 0.341844 0.471731
vt 0.296822 0.485388
vt 0.250000 0.490000
vt 0.203178 0.485388
vt 0.158156 0.471731
vt 0.116663 0.449553
vt 0.080294 0.419706
vt 0.050447 0.383337
vt 0.028269 0.341844
vt 0.014612 0.296822
vt 0.010000 0.250000
vt 0.014612 0.203178
vt 0.028269 0.158156
vt 0.050447 0.116663
vt 0.080294 0.080294
vt 0.116663 0.050447
vt 0.158156 0.028269
vt 0.203178 0.014612
vt 0.250000 0.010000
vt 0.296822 0.014612
vt 0.341844 0.028269
vt 0.383337 0.050447
vt 0.419706 0.080294
vt 0.449553 0.116663
vt 0.471731 0.158156
vt 0.485388 0.203178
vt 0.490000 0.250000
vt 0.485388 0.296822
vt 0.471731 0.341844
vt 0.449553 0.383337
vt 0.843363 0.750000
vt 0.843363 0.500000
vt 0.385733 0.260733
vt 0.375000 0.266817
vt 0.375000 0.983183
vt 0.389457 1.000000
vt 0.597803 1.000000
vt 0.625000 0.968363
vt 0.625000 0.281637
vt 0.605403 0.269597
vt 0.597803 0.250000
vt 0.389457 0.250000
vt 0.611473 0.263527
vt 0.389457 0.000000
vt 0.597803 0.000000
vt 0.382967 0.257967
vt 0.375000 0.266817
vt 0.141817 0.750000
vt 0.141817 0.500000
s 1
usemtl Unrusted
f 24/23/6 23/24/6 21/25/7 22/26/7
f 26/26/8 25/25/8 23/27/6 24/28/6
f 28/28/9 27/27/9 25/29/8 26/30/8
f 30/30/5 29/29/5 27/31/9 28/10/9
f 22/10/7 21/31/7 19/32/10 20/33/10
f 20/33/10 19/32/10 17/34/11 18/35/11
f 18/35/11 17/34/11 32/36/12 31/37/12
f 31/37/12 32/36/12 34/38/13 33/9/13
f 33/9/13 34/38/13 36/39/14 35/40/14
f 35/40/14 36/39/14 38/41/15 37/42/15
f 37/42/15 38/41/15 40/43/16 39/44/16
f 39/44/16 40/43/16 42/7/17 41/45/17
f 41/45/17 42/7/17 44/46/18 43/47/18
f 43/47/18 44/46/18 46/48/19 45/49/19
f 45/49/19 46/48/19 48/50/20 47/51/20
f 47/51/20 48/50/20 50/52/2 49/53/2
f 49/53/2 50/52/2 52/54/21 51/55/21
f 51/55/21 52/54/21 54/56/22 53/57/22
f 53/57/22 54/56/22 56/58/23 55/59/23
f 55/59/23 56/58/23 58/8/24 57/60/24
f 57/60/24 58/8/24 60/61/25 59/62/25
f 59/62/25 60/61/25 62/63/26 61/64/26
f 61/64/26 62/63/26 64/65/27 63/66/27
f 63/66/27 64/65/27 66/67/1 65/14/1
f 65/14/1 66/67/1 68/68/28 67/69/28
f 67/69/28 68/68/28 70/70/29 69/71/29
f 69/71/29 70/70/29 72/72/30 71/73/30
f 71/73/30 72/72/30 74/74/31 73/13/31
f 73/13/31 74/74/31 76/75/32 75/76/32
f 75/76/32 76/75/32 78/77/33 77/78/33
f 26/79/4 24/80/4 22/81/4 20/82/4 18/83/4 31/84/4 33/85/4 35/86/4 37/87/4 39/88/4 41/89/4 43/90/4 45/91/4 47/92/4 49/93/4 51/94/4 53/95/4 55/96/4 57/97/4 59/98/4 61/99/4 63/100/4 65/101/4 67/102/4 69/103/4 71/104/4 73/105/4 75/106/4 77/107/4 79/108/4 30/109/4 28/110/4
f 77/78/33 78/77/33 80/111/34 79/112/34
f 79/112/34 80/111/34 29/113/5 30/114/5
f 21/115/3 23/116/3 25/117/3 27/118/3 29/119/3 80/120/3 78/121/3 76/122/3 74/123/3 72/124/3 70/125/3 68/126/3 66/127/3 64/128/3 62/129/3 60/130/3 58/131/3 56/132/3 54/133/3 52/134/3 50/135/3 48/136/3 46/137/3 44/138/3 42/139/3 40/140/3 38/141/3 36/142/3 34/143/3 32/144/3 17/145/3 19/146/3
f 92/23/32 90/26/31 89/25/31 91/24/32
f 94/26/33 92/28/32 91/27/32 93/25/33
f 96/28/34 94/30/33 93/29/33 95/27/34
f 98/30/5 96/10/34 95/31/34 97/29/5
f 90/10/31 88/33/30 87/32/30 89/31/31
f 88/33/30 86/35/29 85/34/29 87/32/30
f 86/35/29 99/37/28 100/36/28 85/34/29
f 99/37/28 101/9/1 102/38/1 100/36/28
f 101/9/1 103/40/27 104/39/27 102/38/1
f 103/40/27 105/42/26 106/41/26 104/39/27
f 105/42/26 107/44/25 108/43/25 106/41/26
f 107/44/25 109/45/24 110/7/24 108/43/25
f 109/45/24 111/47/23 112/46/23 110/7/24
f 111/47/23 113/49/22 114/48/22 112/46/23
f 113/49/22 115/51/21 116/50/21 114/48/22
f 115/51/21 117/53/2 118/52/2 116/50/21
f 117/53/2 119/55/20 120/54/20 118/52/2
f 119/55/20 121/57/19 122/56/19 120/54/20
f 121/57/19 123/59/18 124/58/18 122/56/19
f 123/59/18 125/60/17 126/8/17 124/58/18
f 125/60/17 127/62/16 128/61/16 126/8/17
f 127/62/16 129/64/15 130/63/15 128/61/16
f 129/64/15 131/66/14 132/65/14 130/63/15
f 131/66/14 133/14/13 134/67/13 132/65/14
f 133/14/13 135/69/12 136/68/12 134/67/13
f 135/69/12 137/71/11 138/70/11 136/68/12
f 137/71/11 139/73/10 140/72/10 138/70/11
f 139/73/10 141/13/7 142/74/7 140/72/10
f 141/13/7 143/76/6 144/75/6 142/74/7
f 143/76/6 145/78/8 146/77/8 144/75/6
f 94/79/4 96/110/4 98/109/4 147/108/4 145/107/4 143/106/4 141/105/4 139/104/4 137/103/4 135/102/4 133/101/4 131/100/4 129/99/4 127/98/4 125/97/4 123/96/4 121/95/4 119/94/4 117/93/4 115/92/4 113/91/4 111/90/4 109/89/4 107/88/4 105/87/4 103/86/4 101/85/4 99/84/4 86/83/4 88/82/4 90/81/4 92/80/4
f 145/78/8 147/112/9 148/111/9 146/77/8
f 147/112/9 98/114/5 97/113/5 148/111/9
f 89/115/3 87/146/3 85/145/3 100/144/3 102/143/3 104/142/3 106/141/3 108/140/3 110/139/3 112/138/3 114/137/3 116/136/3 118/135/3 120/134/3 122/133/3 124/132/3 126/131/3 128/130/3 130/129/3 132/128/3 134/127/3 136/126/3 138/125/3 140/124/3 142/123/3 144/122/3 146/121/3 148/120/3 97/119/3 95/118/3 93/117/3 91/116/3
usemtl Logo
f 16/18/5 15/19/5 11/21/5 83/19/5 84/18/5 14/17/5
usemtl Black_Covering
f 1/1/1 2/2/1 9/3/1 10/4/1
f 7/5/2 8/6/2 2/7/2 1/8/2
f 6/9/3 9/10/3 2/11/3 8/12/3
f 10/13/4 5/14/4 7/15/4 1/16/4
f 12/17/4 3/18/4 16/18/4 14/17/4
f 4/19/5 3/18/5 10/4/5 9/3/5
f 3/18/5 12/17/5 5/20/5 10/4/5
f 13/21/5 4/19/5 9/3/5 6/22/5
f 12/17/3 13/21/3 6/22/3 5/20/3
f 4/19/3 13/21/3 11/21/3 15/19/3
f 3/18/1 4/19/1 15/19/1 16/18/1
f 6/9/3 8/12/3 150/147/3 151/148/3
f 81/18/5 158/149/5 157/150/35 5/20/5 12/17/5
f 7/5/2 154/151/2 155/152/2 149/153/2 150/154/2 8/6/2
f 12/17/4 14/17/4 84/18/4 81/18/4
f 13/21/5 6/22/5 151/155/36 153/156/5 82/19/5
f 82/19/5 153/156/5 152/157/37 156/158/35 158/149/5 81/18/5
f 82/19/3 83/19/3 11/21/3 13/21/3
f 81/18/13 84/18/13 83/19/13 82/19/13
f 151/159/36 152/157/37 153/156/5
f 149/11/38 152/10/37 151/148/36 150/147/38
f 155/160/13 156/158/13 152/157/13 149/161/13
f 156/162/35 157/163/35 158/149/5
f 156/13/35 155/16/39 154/164/39 157/165/35
f 157/165/4 154/164/4 7/15/4 5/14/4
