# Blender 4.1.1
# www.blender.org
mtllib ElevatorCharger.mtl
o ElevatorPower
v -1.127898 -0.104273 0.866194
v -1.116142 -0.168215 0.864158
v -0.778251 -1.143408 0.834014
v -0.621781 -1.181897 0.680852
v -0.551229 -1.197791 0.892980
v -0.684717 -1.163241 0.889078
v 0.621781 -1.181897 0.680852
v 0.778251 -1.143408 0.834014
v 0.684717 -1.163241 0.889078
v 0.551229 -1.197791 0.892980
v 1.127898 -0.104273 0.866194
v 1.116142 -0.168215 0.864158
v -0.739737 0.336745 0.591949
v -0.606249 0.385962 0.706802
v -0.606249 0.343365 0.695933
v -0.739737 -0.690293 -0.435089
v -0.606249 -0.794277 -0.441709
v -0.606249 -0.805145 -0.484306
v 0.606249 -0.805145 -0.484306
v 0.606249 -0.794277 -0.441709
v 0.739737 -0.690293 -0.435089
v 0.739737 0.336745 0.591949
v 0.606249 0.343365 0.695933
v 0.606249 0.385962 0.706802
v -1.126246 0.537567 0.792772
v -1.093048 0.340905 0.876172
v -0.985344 0.550868 0.878259
v -0.992758 0.586784 0.861941
v -1.126246 -0.891115 -0.635911
v -0.992758 -1.005968 -0.685128
v -0.843117 -1.018891 -0.595024
v -1.026426 -0.987749 -0.570536
v 0.992758 -1.005968 -0.685128
v 1.126246 -0.891115 -0.635912
v 1.026426 -0.987749 -0.570536
v 0.843117 -1.018891 -0.595023
v 1.126246 0.537567 0.792772
v 0.992758 0.586784 0.861941
v 0.985344 0.550868 0.878259
v 1.093048 0.340905 0.876172
v -0.992758 0.970889 0.523518
v -0.931736 0.960021 0.480922
v -0.992758 0.843065 0.363966
v -1.126246 0.856037 0.474302
v -0.992758 -0.621862 -1.069233
v -1.126246 -0.572646 -0.954381
v -0.992758 -0.462309 -0.941409
v -0.931736 -0.579266 -1.058365
v 1.126246 -0.572646 -0.954381
v 0.992758 -0.621862 -1.069233
v 0.931736 -0.579266 -1.058365
v 0.992758 -0.462309 -0.941409
v 0.992758 0.970889 0.523518
v 1.126246 0.856037 0.474302
v 0.992758 0.843065 0.363966
v 0.931736 0.960021 0.480922
v -0.739737 0.655215 0.273480
v -0.873225 0.780958 0.301859
v -0.648127 0.812664 0.333565
v -0.606249 0.770067 0.322696
v -0.739737 -0.371823 -0.753559
v -0.606249 -0.421040 -0.868411
v -0.648127 -0.431908 -0.911008
v -0.873225 -0.400202 -0.879302
v 0.606249 -0.421040 -0.868411
v 0.739737 -0.371823 -0.753559
v 0.873225 -0.400202 -0.879302
v 0.648127 -0.431908 -0.911008
v 0.739737 0.655215 0.273480
v 0.606249 0.770067 0.322696
v 0.648127 0.812664 0.333565
v 0.873225 0.780958 0.301859
v -0.295148 0.701148 0.237070
v -0.295148 0.794049 0.340338
v -0.241662 0.697232 0.240593
v -0.241662 0.790132 0.343861
v -0.190232 0.691746 0.249389
v -0.190232 0.784646 0.352657
v -0.142834 0.672911 0.266333
v -0.142834 0.765811 0.369601
v -0.101289 0.647563 0.289136
v -0.101289 0.740463 0.392404
v -0.067194 0.616677 0.316922
v -0.067194 0.709578 0.420189
v -0.041859 0.581439 0.348622
v -0.041859 0.674340 0.451890
v -0.026258 0.543204 0.383019
v -0.026258 0.636105 0.486286
v -0.020990 0.503441 0.418790
v -0.020990 0.596341 0.522058
v -0.026258 0.463677 0.454561
v -0.026258 0.556578 0.557829
v -0.041859 0.425442 0.488958
v -0.041859 0.518343 0.592226
v -0.067194 0.390204 0.520658
v -0.067194 0.483105 0.623926
v -0.101289 0.359318 0.548443
v -0.101289 0.452219 0.651711
v -0.142834 0.333970 0.571247
v -0.142834 0.426871 0.674514
v -0.190232 0.315136 0.588190
v -0.190232 0.408036 0.691458
v -0.241662 0.303537 0.598625
v -0.241662 0.396438 0.701892
v -0.295148 0.299621 0.602148
v -0.295148 0.392521 0.705415
v -0.348633 0.303537 0.598625
v -0.348633 0.396438 0.701892
v -0.400063 0.315136 0.588190
v -0.400063 0.408036 0.691458
v -0.447462 0.333970 0.571247
v -0.447462 0.426871 0.674514
v -0.489007 0.359318 0.548443
v -0.489007 0.452219 0.651711
v -0.523102 0.390204 0.520658
v -0.523102 0.483105 0.623926
v -0.548437 0.425442 0.488958
v -0.548437 0.518343 0.592226
v -0.564038 0.463677 0.454561
v -0.564038 0.556578 0.557829
v -0.569306 0.503441 0.418790
v -0.569306 0.596341 0.522058
v -0.564038 0.543204 0.383019
v -0.564038 0.636105 0.486286
v -0.548437 0.581439 0.348622
v -0.548437 0.674340 0.451890
v -0.523102 0.616677 0.316922
v -0.523102 0.709578 0.420189
v -0.489007 0.647563 0.289136
v -0.489007 0.740463 0.392404
v -0.447462 0.672911 0.266333
v -0.447462 0.765811 0.369601
v -0.400063 0.691746 0.249389
v -0.400063 0.784646 0.352657
v -0.348633 0.697232 0.240593
v -0.348633 0.790132 0.343861
v 0.324450 0.687127 0.263670
v 0.324450 0.780028 0.366937
v 0.377935 0.683211 0.267193
v 0.377935 0.776111 0.370461
v 0.429366 0.671612 0.277627
v 0.429366 0.764513 0.380895
v 0.476764 0.652777 0.294571
v 0.476764 0.745678 0.397839
v 0.518309 0.627429 0.317374
v 0.518309 0.720330 0.420642
v 0.552404 0.596543 0.345159
v 0.552404 0.689444 0.448427
v 0.577739 0.561306 0.376859
v 0.577739 0.654207 0.480127
v 0.593340 0.523071 0.411256
v 0.593340 0.615971 0.514524
v 0.598608 0.483308 0.447027
v 0.598608 0.576208 0.550295
v 0.593340 0.443544 0.482799
v 0.593340 0.536445 0.586067
v 0.577739 0.405309 0.517196
v 0.577739 0.498209 0.620463
v 0.552404 0.370071 0.548896
v 0.552404 0.462971 0.652164
v 0.518309 0.339185 0.576681
v 0.518309 0.432086 0.679949
v 0.476764 0.313837 0.599484
v 0.476764 0.406738 0.702752
v 0.429366 0.295003 0.616428
v 0.429366 0.387903 0.719696
v 0.377935 0.283404 0.626862
v 0.377935 0.376305 0.730130
v 0.324450 0.279488 0.630385
v 0.324450 0.372388 0.733653
v 0.270964 0.283404 0.626862
v 0.270964 0.376305 0.730130
v 0.219534 0.295003 0.616428
v 0.219534 0.387903 0.719696
v 0.172136 0.313837 0.599484
v 0.172136 0.406738 0.702752
v 0.130591 0.339185 0.576681
v 0.130591 0.432086 0.679949
v 0.096496 0.370071 0.548896
v 0.096496 0.462971 0.652164
v 0.071161 0.405309 0.517196
v 0.071161 0.498209 0.620463
v 0.055560 0.443544 0.482799
v 0.055560 0.536445 0.586067
v 0.050292 0.483308 0.447027
v 0.050292 0.576208 0.550295
v 0.055560 0.523071 0.411256
v 0.055560 0.615971 0.514524
v 0.071161 0.561306 0.376859
v 0.071161 0.654207 0.480127
v 0.096496 0.596543 0.345159
v 0.096496 0.689444 0.448427
v 0.130591 0.627429 0.317374
v 0.130591 0.720330 0.420642
v 0.172136 0.652777 0.294571
v 0.172136 0.745678 0.397839
v 0.219534 0.671612 0.277627
v 0.219534 0.764513 0.380895
v 0.270964 0.683211 0.267193
v 0.270964 0.776111 0.370461
vn -0.7343 -0.2361 0.6365
vn -0.9757 -0.2093 0.0648
vn -0.9263 -0.2852 0.2461
vn -0.9720 -0.2194 0.0844
vn 1.0000 -0.0000 -0.0000
vn -0.0000 -0.3465 -0.9381
vn 0.0423 -0.0317 -0.9986
vn -0.0423 -0.0317 -0.9986
vn -0.0000 -0.9948 -0.1023
vn -0.0000 -0.9907 -0.1361
vn 0.9757 -0.2093 0.0648
vn 0.7343 -0.2361 0.6365
vn 0.9720 -0.2194 0.0844
vn 0.9263 -0.2852 0.2461
vn -0.0000 0.7071 -0.7071
vn -0.0000 0.5304 -0.8477
vn -0.9354 -0.2649 0.2344
vn -0.9996 -0.0206 0.0182
vn -1.0000 -0.0000 -0.0000
vn 0.9996 -0.0206 0.0182
vn 0.9354 -0.2649 0.2344
vn -0.0000 -0.9250 -0.3800
vn -0.0000 -0.3821 -0.9241
vn -0.0111 0.5887 -0.8082
vn 0.0111 0.5887 -0.8082
vn -0.0261 0.6047 -0.7960
vn -0.0000 0.5217 -0.8531
vn 0.0261 0.6047 -0.7960
vn -0.0000 0.7071 0.7071
vn -0.0000 0.5561 0.8311
vn -0.0000 0.6611 0.7503
vn -0.2371 -0.9704 -0.0453
vn -0.2371 -0.9712 -0.0237
vn -0.2367 -0.9715 0.0155
vn 0.2371 -0.9712 -0.0237
vn 0.2371 -0.9704 -0.0453
vn 0.2367 -0.9715 0.0155
vn 0.5835 0.3759 -0.7199
vn 0.6718 -0.4513 -0.5874
vn 0.5495 0.4043 -0.7312
vn 0.5962 0.7779 -0.1985
vn -0.5962 0.7779 -0.1985
vn -0.5835 0.3759 -0.7199
vn -0.5495 0.4043 -0.7312
vn -0.6718 -0.4513 -0.5874
vn -0.5383 0.3135 0.7823
vn -0.0396 0.0104 0.9992
vn -0.2613 0.2448 0.9337
vn -0.5911 0.5131 0.6224
vn -0.6470 -0.5839 -0.4904
vn -0.4347 -0.9005 -0.0104
vn -0.4140 -0.9100 0.0230
vn 0.4347 -0.9005 -0.0104
vn 0.6470 -0.5839 -0.4904
vn 0.4140 -0.9100 0.0230
vn 0.5383 0.3135 0.7823
vn 0.5911 0.5131 0.6224
vn 0.2613 0.2448 0.9337
vn 0.0396 0.0104 0.9992
vn -0.3681 0.7256 -0.5813
vn -0.4268 0.6650 -0.6129
vn -0.3974 0.6965 -0.5974
vn -0.6769 -0.3464 -0.6495
vn -0.4714 0.4397 -0.7645
vn -0.4511 0.6250 -0.6371
vn -0.3681 0.5813 -0.7256
vn 0.4714 0.4397 -0.7645
vn 0.6769 -0.3464 -0.6495
vn 0.3681 0.5813 -0.7256
vn 0.4511 0.6250 -0.6371
vn 0.3681 0.7256 -0.5813
vn 0.3974 0.6965 -0.5974
vn 0.4268 0.6650 -0.6129
vn 0.0866 0.3108 -0.9465
vn 0.0866 0.9465 -0.3108
vn -0.0866 0.9465 -0.3108
vn -0.0866 0.3108 -0.9465
vn -0.5743 -0.2233 0.7876
vn -0.0000 -0.9972 -0.0747
vn 0.5743 -0.2233 0.7876
vn 0.2370 -0.9687 -0.0736
vn -0.2370 -0.9687 -0.0736
vn 0.4584 0.6284 -0.6284
vn -0.0000 0.9690 -0.2472
vn -0.4584 0.6284 -0.6284
vn -0.5967 0.5480 0.5862
vn 0.5967 0.5480 0.5862
vn -0.6560 -0.5337 -0.5337
vn -0.6560 0.5337 0.5337
vn 0.6560 0.5337 0.5337
vn 0.6560 -0.5337 -0.5337
vn -0.0000 0.3656 -0.9308
vn -0.0000 0.7434 -0.6688
vn 0.1280 0.7373 -0.6633
vn 0.1221 0.1372 -0.9830
vn 0.2365 0.7224 -0.6498
vn 0.3944 0.6832 -0.6146
vn 0.4908 0.6477 -0.5827
vn 0.6115 0.5882 -0.5292
vn 0.6494 0.5654 -0.5086
vn 0.7574 0.4855 -0.4367
vn 0.7845 0.4610 -0.4147
vn 0.8716 0.3645 -0.3279
vn 0.8902 0.3387 -0.3047
vn 0.9510 0.2299 -0.2068
vn 0.9620 0.2031 -0.1827
vn 0.9932 0.0868 -0.0781
vn 0.9968 0.0594 -0.0534
vn 0.9968 -0.0594 0.0534
vn 0.9932 -0.0868 0.0781
vn 0.9620 -0.2031 0.1827
vn 0.9510 -0.2299 0.2068
vn 0.8902 -0.3387 0.3047
vn 0.8716 -0.3645 0.3279
vn 0.7845 -0.4610 0.4147
vn 0.7574 -0.4855 0.4367
vn 0.6494 -0.5654 0.5086
vn 0.6115 -0.5882 0.5292
vn 0.4908 -0.6477 0.5827
vn 0.4363 -0.6690 0.6018
vn 0.3171 -0.7051 0.6343
vn 0.1907 -0.2243 0.9557
vn 0.1430 -0.7358 0.6619
vn -0.0000 -0.3656 0.9308
vn -0.0000 -0.7434 0.6688
vn -0.1907 -0.2243 0.9557
vn -0.1430 -0.7358 0.6619
vn -0.4363 -0.6690 0.6018
vn -0.3171 -0.7051 0.6343
vn -0.6115 -0.5882 0.5292
vn -0.4908 -0.6477 0.5827
vn -0.7574 -0.4855 0.4367
vn -0.6494 -0.5654 0.5086
vn -0.8716 -0.3645 0.3279
vn -0.7845 -0.4610 0.4147
vn -0.9510 -0.2299 0.2068
vn -0.8902 -0.3387 0.3047
vn -0.9932 -0.0868 0.0781
vn -0.9620 -0.2031 0.1827
vn -0.9968 0.0594 -0.0534
vn -0.9968 -0.0594 0.0534
vn -0.9620 0.2031 -0.1827
vn -0.9932 0.0868 -0.0781
vn -0.8902 0.3387 -0.3047
vn -0.9510 0.2299 -0.2068
vn -0.7845 0.4610 -0.4147
vn -0.8716 0.3645 -0.3279
vn -0.6494 0.5654 -0.5086
vn -0.7574 0.4855 -0.4367
vn -0.4908 0.6477 -0.5827
vn -0.6115 0.5882 -0.5292
vn -0.2365 0.7224 -0.6498
vn -0.3944 0.6832 -0.6146
vn -0.0000 0.6702 0.7421
vn -0.1280 0.7373 -0.6633
vn -0.1221 0.1372 -0.9830
vn -0.0000 -0.6702 -0.7421
vn -0.0000 0.3666 -0.9304
vn 0.1430 0.7358 -0.6619
vn 0.1907 0.2257 -0.9554
vn 0.3171 0.7051 -0.6343
vn 0.4363 0.6690 -0.6018
vn 0.1907 -0.2256 0.9554
vn -0.0000 -0.3666 0.9304
vn -0.1907 -0.2256 0.9554
vn -0.3171 0.7051 -0.6343
vn -0.4363 0.6690 -0.6018
vn -0.0000 0.6688 0.7434
vn -0.1430 0.7358 -0.6619
vn -0.1907 0.2257 -0.9554
vn -0.0000 -0.6688 -0.7434
vt 0.835590 0.552464
vt 0.835590 0.695097
vt 0.835590 0.697333
vt 0.835590 0.547676
vt 0.806963 0.691809
vt 0.806963 0.558190
vt 0.806963 0.558190
vt 0.806963 0.691809
vt 0.703316 0.702482
vt 0.796684 0.702482
vt 0.796684 0.702482
vt 0.703316 0.702482
vt 0.680690 0.539410
vt 0.819310 0.539410
vt 0.821485 0.539410
vt 0.678515 0.539410
vt 0.664410 0.695097
vt 0.664410 0.552464
vt 0.664410 0.547676
vt 0.664410 0.697333
vt 0.703316 0.550996
vt 0.796684 0.550996
vt 0.796684 0.699004
vt 0.703316 0.699004
vt 0.835590 0.548227
vt 0.835590 0.701773
vt 0.835590 0.701773
vt 0.835590 0.548227
vt 0.664410 0.701773
vt 0.664410 0.548227
vt 0.664410 0.548227
vt 0.664410 0.701773
vt 0.674555 0.539410
vt 0.825445 0.539410
vt 0.825445 0.539410
vt 0.674555 0.539410
vt 0.700182 0.703562
vt 0.799818 0.703561
vt 0.820886 0.709510
vt 0.679114 0.709510
vt 0.683150 0.552922
vt 0.683150 0.697078
vt 0.674297 0.699746
vt 0.674297 0.550254
vt 0.799818 0.546438
vt 0.700182 0.546438
vt 0.679114 0.540490
vt 0.820886 0.540490
vt 0.816850 0.697078
vt 0.816850 0.552922
vt 0.825703 0.550254
vt 0.825703 0.699746
vt 0.796684 0.547518
vt 0.703316 0.547518
vt 0.796684 0.547518
vt 0.825445 0.710590
vt 0.674555 0.710590
vt 0.674555 0.710590
vt 0.825445 0.710590
vt 0.693036 0.558190
vt 0.693037 0.691810
vt 0.693037 0.691810
vt 0.693036 0.558190
vt 0.818904 0.539410
vt 0.835590 0.556096
vt 0.664410 0.556096
vt 0.681096 0.539410
vt 0.825135 0.710590
vt 0.674865 0.710590
vt 0.835590 0.693904
vt 0.664410 0.693904
vt 1.000000 0.500000
vt 1.000000 1.000000
vt 0.968750 1.000000
vt 0.968750 0.500000
vt 0.937500 1.000000
vt 0.937500 0.500000
vt 0.906250 1.000000
vt 0.906250 0.500000
vt 0.875000 1.000000
vt 0.875000 0.500000
vt 0.843750 1.000000
vt 0.843750 0.500000
vt 0.812500 1.000000
vt 0.812500 0.500000
vt 0.781250 1.000000
vt 0.781250 0.500000
vt 0.750000 1.000000
vt 0.750000 0.500000
vt 0.718750 1.000000
vt 0.718750 0.500000
vt 0.687500 1.000000
vt 0.687500 0.500000
vt 0.656250 1.000000
vt 0.656250 0.500000
vt 0.625000 1.000000
vt 0.625000 0.500000
vt 0.593750 1.000000
vt 0.593750 0.500000
vt 0.562500 1.000000
vt 0.562500 0.500000
vt 0.531250 1.000000
vt 0.531250 0.500000
vt 0.500000 1.000000
vt 0.500000 0.500000
vt 0.468750 1.000000
vt 0.468750 0.500000
vt 0.437500 1.000000
vt 0.437500 0.500000
vt 0.406250 1.000000
vt 0.406250 0.500000
vt 0.375000 1.000000
vt 0.375000 0.500000
vt 0.343750 1.000000
vt 0.343750 0.500000
vt 0.312500 1.000000
vt 0.312500 0.500000
vt 0.281250 1.000000
vt 0.281250 0.500000
vt 0.250000 1.000000
vt 0.250000 0.500000
vt 0.218750 1.000000
vt 0.218750 0.500000
vt 0.187500 1.000000
vt 0.187500 0.500000
vt 0.156250 1.000000
vt 0.156250 0.500000
vt 0.125000 1.000000
vt 0.125000 0.500000
vt 0.093750 1.000000
vt 0.093750 0.500000
vt 0.062500 1.000000
vt 0.062500 0.500000
vt 0.296822 0.485388
vt 0.250000 0.490000
vt 0.203178 0.485388
vt 0.158156 0.471731
vt 0.116663 0.449553
vt 0.080294 0.419706
vt 0.050447 0.383337
vt 0.028269 0.341844
vt 0.014612 0.296822
vt 0.010000 0.250000
vt 0.014612 0.203178
vt 0.028269 0.158156
vt 0.050447 0.116663
vt 0.080294 0.080294
vt 0.116663 0.050447
vt 0.158156 0.028269
vt 0.203178 0.014612
vt 0.250000 0.010000
vt 0.296822 0.014612
vt 0.341844 0.028269
vt 0.383337 0.050447
vt 0.419706 0.080294
vt 0.449553 0.116663
vt 0.471731 0.158156
vt 0.485388 0.203178
vt 0.490000 0.250000
vt 0.485388 0.296822
vt 0.471731 0.341844
vt 0.449553 0.383337
vt 0.419706 0.419706
vt 0.383337 0.449553
vt 0.341844 0.471731
vt 0.031250 1.000000
vt 0.031250 0.500000
vt 0.000000 1.000000
vt 0.000000 0.500000
vt 0.750000 0.490000
vt 0.796822 0.485388
vt 0.841844 0.471731
vt 0.883337 0.449553
vt 0.919706 0.419706
vt 0.949553 0.383337
vt 0.971731 0.341844
vt 0.985388 0.296822
vt 0.990000 0.250000
vt 0.985388 0.203178
vt 0.971731 0.158156
vt 0.949553 0.116663
vt 0.919706 0.080294
vt 0.883337 0.050447
vt 0.841844 0.028269
vt 0.796822 0.014612
vt 0.750000 0.010000
vt 0.703178 0.014612
vt 0.658156 0.028269
vt 0.616663 0.050447
vt 0.580294 0.080294
vt 0.550447 0.116663
vt 0.528269 0.158156
vt 0.514612 0.203178
vt 0.510000 0.250000
vt 0.514612 0.296822
vt 0.528269 0.341844
vt 0.550447 0.383337
vt 0.580294 0.419706
vt 0.616663 0.449553
vt 0.658156 0.471731
vt 0.703178 0.485388
s 1
usemtl Logo.001
f 20/21/15 17/22/15 15/23/16 23/24/16
usemtl Black_Covering.001
f 3/1/1 1/2/2 26/3/3 32/4/4
f 13/5/5 16/6/5 61/7/5 57/8/5
f 24/9/6 14/10/6 60/11/7 70/12/8
f 7/13/9 4/14/9 31/15/10 36/16/10
f 11/17/11 8/18/12 35/19/13 40/20/14
f 29/25/17 25/26/18 44/27/19 46/28/19
f 37/29/20 34/30/21 49/31/5 54/32/5
f 33/33/22 30/34/22 45/35/23 50/36/23
f 71/37/24 59/38/25 42/39/15 56/40/15
f 67/41/15 72/42/26 55/43/15 52/44/15
f 63/45/15 68/46/15 51/47/27 48/48/27
f 58/49/28 64/50/15 47/51/15 43/52/15
f 18/53/29 19/54/29 65/54/29 62/55/29
f 28/56/30 38/57/30 53/58/31 41/59/31
f 21/60/19 22/61/19 69/62/19 66/63/19
f 3/1/32 4/14/33 5/64/34 6/65/34
f 7/13/35 8/18/36 9/66/37 10/67/37
f 13/5/38 14/10/39 15/23/40
f 16/6/41 17/22/41 18/53/41
f 19/54/42 20/21/42 21/60/42
f 22/61/43 23/24/44 24/9/45
f 25/26/46 26/3/47 27/68/48 28/56/49
f 29/25/50 30/34/51 31/15/52 32/4/52
f 33/33/53 34/30/54 35/19/55 36/16/55
f 37/29/56 38/57/57 39/69/58 40/20/59
f 41/59/60 42/39/60 43/52/61 44/27/62
f 45/35/63 46/28/64 47/51/65 48/48/66
f 49/31/67 50/36/68 51/47/69 52/44/70
f 53/58/71 54/32/72 55/43/73 56/40/71
f 57/8/74 58/49/28 59/38/25 60/11/7
f 61/7/75 62/55/75 63/45/75 64/50/75
f 65/54/76 66/63/76 67/41/76 68/46/76
f 69/62/77 70/12/8 71/37/24 72/42/26
f 1/2/2 3/1/1 6/65/78 2/70/78
f 4/14/9 7/13/9 10/67/79 5/64/79
f 8/18/12 11/17/11 12/71/80 9/66/80
f 25/26/18 29/25/17 32/4/4 26/3/3
f 30/34/22 33/33/22 36/16/10 31/15/10
f 34/30/21 37/29/20 40/20/14 35/19/13
f 38/57/30 28/56/30 27/68/48 39/69/58
f 7/13/35 36/16/81 35/19/81 8/18/36
f 31/15/82 4/14/33 3/1/32 32/4/82
f 15/23/40 17/22/83 16/6/83 13/5/38
f 17/22/84 20/21/84 19/54/84 18/53/84
f 20/21/85 23/24/44 22/61/43 21/60/85
f 23/24/16 15/23/16 14/10/6 24/9/6
f 49/31/67 34/30/54 33/33/53 50/36/68
f 29/25/50 46/28/64 45/35/63 30/34/51
f 44/27/86 25/26/46 28/56/49 41/59/86
f 37/29/56 54/32/87 53/58/87 38/57/57
f 43/52/61 47/51/65 46/28/64 44/27/62
f 48/48/27 51/47/27 50/36/23 45/35/23
f 52/44/70 55/43/73 54/32/72 49/31/67
f 56/40/84 42/39/84 41/59/84 53/58/84
f 57/8/83 61/7/83 64/50/83 58/49/83
f 62/55/84 65/54/84 68/46/84 63/45/84
f 66/63/85 69/62/85 72/42/85 67/41/85
f 70/12/8 60/11/7 59/38/25 71/37/24
f 42/39/15 59/38/25 58/49/28 43/52/15
f 63/45/15 48/48/27 47/51/15 64/50/15
f 67/41/15 52/44/15 51/47/27 68/46/15
f 71/37/24 56/40/15 55/43/15 72/42/26
f 24/9/45 70/12/88 69/62/88 22/61/43
f 65/54/89 19/54/89 21/60/89 66/63/89
f 18/53/90 62/55/90 61/7/90 16/6/90
f 60/11/91 14/10/39 13/5/38 57/8/91
f 26/3/47 40/20/59 39/69/58 27/68/48
usemtl Unrusted.001
f 73/72/92 74/73/93 76/74/94 75/75/95
f 75/75/95 76/74/94 78/76/96 77/77/97
f 77/77/97 78/76/96 80/78/98 79/79/99
f 79/79/99 80/78/98 82/80/100 81/81/101
f 81/81/101 82/80/100 84/82/102 83/83/103
f 83/83/103 84/82/102 86/84/104 85/85/105
f 85/85/105 86/84/104 88/86/106 87/87/107
f 87/87/107 88/86/106 90/88/108 89/89/109
f 89/89/109 90/88/108 92/90/110 91/91/111
f 91/91/111 92/90/110 94/92/112 93/93/113
f 93/93/113 94/92/112 96/94/114 95/95/115
f 95/95/115 96/94/114 98/96/116 97/97/117
f 97/97/117 98/96/116 100/98/118 99/99/119
f 99/99/119 100/98/118 102/100/120 101/101/121
f 101/101/121 102/100/120 104/102/122 103/103/123
f 103/103/123 104/102/122 106/104/124 105/105/125
f 105/105/125 106/104/124 108/106/126 107/107/127
f 107/107/127 108/106/126 110/108/128 109/109/129
f 109/109/129 110/108/128 112/110/130 111/111/131
f 111/111/131 112/110/130 114/112/132 113/113/133
f 113/113/133 114/112/132 116/114/134 115/115/135
f 115/115/135 116/114/134 118/116/136 117/117/137
f 117/117/137 118/116/136 120/118/138 119/119/139
f 119/119/139 120/118/138 122/120/140 121/121/141
f 121/121/141 122/120/140 124/122/142 123/123/143
f 123/123/143 124/122/142 126/124/144 125/125/145
f 125/125/145 126/124/144 128/126/146 127/127/147
f 127/127/147 128/126/146 130/128/148 129/129/149
f 129/129/149 130/128/148 132/130/150 131/131/151
f 131/131/151 132/130/150 134/132/152 133/133/153
f 76/134/154 74/135/154 136/136/154 134/137/154 132/138/154 130/139/154 128/140/154 126/141/154 124/142/154 122/143/154 120/144/154 118/145/154 116/146/154 114/147/154 112/148/154 110/149/154 108/150/126 106/151/124 104/152/122 102/153/154 100/154/154 98/155/154 96/156/154 94/157/154 92/158/154 90/159/154 88/160/154 86/161/154 84/162/154 82/163/154 80/164/154 78/165/154
f 133/133/153 134/132/152 136/166/155 135/167/156
f 135/167/156 136/166/155 74/168/93 73/169/92
f 73/170/92 75/171/95 77/172/157 79/173/157 81/174/157 83/175/157 85/176/157 87/177/157 89/178/157 91/179/157 93/180/157 95/181/157 97/182/157 99/183/157 101/184/157 103/185/157 105/186/157 107/187/157 109/188/157 111/189/157 113/190/157 115/191/157 117/192/157 119/193/157 121/194/157 123/195/157 125/196/157 127/197/157 129/198/157 131/199/157 133/200/157 135/201/156
f 137/72/158 138/73/93 140/74/159 139/75/160
f 139/75/160 140/74/159 142/76/161 141/77/162
f 141/77/162 142/76/161 144/78/98 143/79/99
f 143/79/99 144/78/98 146/80/100 145/81/101
f 145/81/101 146/80/100 148/82/102 147/83/103
f 147/83/103 148/82/102 150/84/104 149/85/105
f 149/85/105 150/84/104 152/86/106 151/87/107
f 151/87/107 152/86/106 154/88/108 153/89/109
f 153/89/109 154/88/108 156/90/110 155/91/111
f 155/91/111 156/90/110 158/92/112 157/93/113
f 157/93/113 158/92/112 160/94/114 159/95/115
f 159/95/115 160/94/114 162/96/116 161/97/117
f 161/97/117 162/96/116 164/98/118 163/99/119
f 163/99/119 164/98/118 166/100/120 165/101/121
f 165/101/121 166/100/120 168/102/163 167/103/123
f 167/103/123 168/102/163 170/104/164 169/105/125
f 169/105/125 170/104/164 172/106/165 171/107/127
f 171/107/127 172/106/165 174/108/128 173/109/129
f 173/109/129 174/108/128 176/110/130 175/111/131
f 175/111/131 176/110/130 178/112/132 177/113/133
f 177/113/133 178/112/132 180/114/134 179/115/135
f 179/115/135 180/114/134 182/116/136 181/117/137
f 181/117/137 182/116/136 184/118/138 183/119/139
f 183/119/139 184/118/138 186/120/140 185/121/141
f 185/121/141 186/120/140 188/122/142 187/123/143
f 187/123/143 188/122/142 190/124/144 189/125/145
f 189/125/145 190/124/144 192/126/146 191/127/147
f 191/127/147 192/126/146 194/128/148 193/129/149
f 193/129/149 194/128/148 196/130/150 195/131/151
f 195/131/151 196/130/150 198/132/166 197/133/167
f 140/134/168 138/135/168 200/136/168 198/137/168 196/138/168 194/139/168 192/140/168 190/141/168 188/142/168 186/143/168 184/144/168 182/145/168 180/146/168 178/147/168 176/148/168 174/149/168 172/150/165 170/151/164 168/152/163 166/153/168 164/154/168 162/155/168 160/156/168 158/157/168 156/158/168 154/159/168 152/160/168 150/161/168 148/162/168 146/163/168 144/164/168 142/165/168
f 197/133/167 198/132/166 200/166/169 199/167/170
f 199/167/170 200/166/169 138/168/93 137/169/158
f 137/170/158 139/171/160 141/172/171 143/173/171 145/174/171 147/175/171 149/176/171 151/177/171 153/178/171 155/179/171 157/180/171 159/181/171 161/182/171 163/183/171 165/184/171 167/185/171 169/186/171 171/187/171 173/188/171 175/189/171 177/190/171 179/191/171 181/192/171 183/193/171 185/194/171 187/195/171 189/196/171 191/197/171 193/198/171 195/199/171 197/200/171 199/201/170
